<svg width="90" height="78" viewBox="0 0 90 78" fill="none" xmlns="http://www.w3.org/2000/svg">
<path d="M76 0H9C4.02944 0 0 4.02944 0 9V21.5C0 23.9853 2.01472 26 4.5 26C6.98528 26 9 28.0147 9 30.5V64.5C9 71.9558 15.0442 78 22.5 78C29.9558 78 36 71.9558 36 64.5V39.5C36 32.0442 42.0442 26 49.5 26H50C57.1797 26 63 31.8203 63 39V47.5C63 49.9853 60.9853 52 58.5 52C56.0147 52 54 54.0147 54 56.5V65C54 72.1797 59.8203 78 67 78H76C83.732 78 90 71.732 90 64V14C90 6.26801 83.732 0 76 0Z" fill="black"/>
</svg>
