<svg width="143" height="28" viewBox="0 0 143 28" fill="none" xmlns="http://www.w3.org/2000/svg">
<path d="M26 0H3.2H3C1.34315 0 0 1.34315 0 3V7.73333C0 8.61699 0.716345 9.33333 1.6 9.33333C2.48366 9.33333 3.2 10.0497 3.2 10.9333V25C3.2 26.6569 4.54314 28 6.2 28H9.8C11.4569 28 12.8 26.6569 12.8 25V14.1333C12.8 11.4824 14.949 9.33333 17.6 9.33333H17.7333C20.3107 9.33333 22.4 11.4227 22.4 14V17.0667C22.4 17.9503 21.6837 18.6667 20.8 18.6667C19.9163 18.6667 19.2 19.383 19.2 20.2667V25C19.2 26.6569 20.5431 28 22.2 28H29C30.6569 28 32 26.6569 32 25V6C32 2.68629 29.3137 0 26 0Z" fill="black" fill-opacity="0.87"/>
<path d="M45.606 21V5.49H48.444L54.054 15.698H53.306L58.894 5.49H61.688V21H58.586V10.704H59.07L54.582 18.668H52.668L48.158 10.682H48.686V21H45.606ZM64.4155 8.108V5.006H68.0015V8.108H64.4155ZM64.5475 21V10.198H67.8695V21H64.5475ZM75.7362 21.242C74.1962 21.242 73.0522 20.868 72.3042 20.12C71.5562 19.372 71.1822 18.272 71.1822 16.82V12.684H69.1362V10.198H71.1822V7.03H74.5042V10.198H77.6942V12.684H74.5042V16.688C74.5042 17.304 74.6435 17.766 74.9222 18.074C75.2155 18.382 75.6775 18.536 76.3082 18.536C76.4989 18.536 76.6969 18.514 76.9022 18.47C77.1222 18.426 77.3569 18.3673 77.6062 18.294L78.0902 20.714C77.7822 20.8753 77.4155 21 76.9902 21.088C76.5649 21.1907 76.1469 21.242 75.7362 21.242ZM82.9807 21.242C82.1887 21.242 81.4774 21.088 80.8467 20.78C80.2161 20.472 79.7247 20.054 79.3727 19.526C79.0207 18.998 78.8447 18.404 78.8447 17.744C78.8447 16.952 79.0501 16.3287 79.4607 15.874C79.8714 15.4047 80.5387 15.0747 81.4627 14.884C82.3867 14.6787 83.6114 14.576 85.1367 14.576H86.3027V16.292H85.1587C84.5867 16.292 84.1027 16.314 83.7067 16.358C83.3254 16.402 83.0101 16.4827 82.7607 16.6C82.5114 16.7027 82.3281 16.8347 82.2107 16.996C82.1081 17.1573 82.0567 17.3627 82.0567 17.612C82.0567 18.0227 82.1961 18.36 82.4747 18.624C82.7681 18.888 83.1861 19.02 83.7287 19.02C84.1541 19.02 84.5281 18.9247 84.8507 18.734C85.1881 18.5287 85.4521 18.2573 85.6427 17.92C85.8334 17.568 85.9287 17.172 85.9287 16.732V14.202C85.9287 13.5567 85.7821 13.102 85.4887 12.838C85.1954 12.5593 84.6967 12.42 83.9927 12.42C83.4061 12.42 82.7827 12.5153 82.1227 12.706C81.4774 12.882 80.8321 13.1533 80.1867 13.52L79.2847 11.298C79.6661 11.034 80.1281 10.8067 80.6707 10.616C81.2281 10.4107 81.8074 10.2567 82.4087 10.154C83.0101 10.0367 83.5821 9.978 84.1247 9.978C85.2541 9.978 86.1781 10.1467 86.8967 10.484C87.6301 10.8067 88.1801 11.3127 88.5467 12.002C88.9134 12.6767 89.0967 13.5493 89.0967 14.62V21H85.9947V18.822H86.1487C86.0607 19.3207 85.8701 19.7533 85.5767 20.12C85.2981 20.472 84.9387 20.7507 84.4987 20.956C84.0587 21.1467 83.5527 21.242 82.9807 21.242ZM96.7668 25.202C95.7402 25.202 94.7722 25.092 93.8628 24.872C92.9535 24.652 92.1615 24.3073 91.4868 23.838L92.3888 21.572C92.7848 21.8067 93.2102 22.012 93.6648 22.188C94.1342 22.364 94.6108 22.496 95.0948 22.584C95.5788 22.672 96.0408 22.716 96.4808 22.716C97.4195 22.716 98.1235 22.5033 98.5928 22.078C99.0622 21.6527 99.2968 21 99.2968 20.12V18.448H99.4948C99.2748 19.1227 98.8202 19.6727 98.1308 20.098C97.4415 20.5233 96.6788 20.736 95.8428 20.736C94.8748 20.736 94.0315 20.516 93.3128 20.076C92.5942 19.6213 92.0368 18.9907 91.6408 18.184C91.2448 17.3627 91.0468 16.4167 91.0468 15.346C91.0468 14.2607 91.2448 13.322 91.6408 12.53C92.0368 11.7233 92.5942 11.1 93.3128 10.66C94.0315 10.2053 94.8748 9.978 95.8428 9.978C96.7082 9.978 97.4708 10.1907 98.1308 10.616C98.8055 11.0267 99.2528 11.5693 99.4728 12.244H99.2968V10.198H102.531V19.746C102.531 20.9487 102.311 21.9533 101.871 22.76C101.431 23.5813 100.778 24.19 99.9128 24.586C99.0622 24.9967 98.0135 25.202 96.7668 25.202ZM96.8328 18.25C97.5662 18.25 98.1528 17.9933 98.5928 17.48C99.0475 16.9667 99.2748 16.2553 99.2748 15.346C99.2748 14.4367 99.0475 13.7327 98.5928 13.234C98.1528 12.7207 97.5662 12.464 96.8328 12.464C96.0848 12.464 95.4908 12.7207 95.0508 13.234C94.6108 13.7327 94.3908 14.4367 94.3908 15.346C94.3908 16.2553 94.6108 16.9667 95.0508 17.48C95.4908 17.9933 96.0848 18.25 96.8328 18.25ZM109.312 21.242C108.373 21.242 107.545 21.0147 106.826 20.56C106.122 20.1053 105.572 19.4527 105.176 18.602C104.78 17.7513 104.582 16.7467 104.582 15.588C104.582 14.4293 104.78 13.432 105.176 12.596C105.572 11.76 106.122 11.1147 106.826 10.66C107.545 10.2053 108.373 9.978 109.312 9.978C110.163 9.978 110.911 10.1833 111.556 10.594C112.216 11.0047 112.663 11.54 112.898 12.2H112.656V5.49H115.978V21H112.722V18.866H112.92C112.715 19.5847 112.275 20.164 111.6 20.604C110.94 21.0293 110.177 21.242 109.312 21.242ZM110.302 18.756C111.021 18.756 111.6 18.4993 112.04 17.986C112.48 17.458 112.7 16.6587 112.7 15.588C112.7 14.5173 112.48 13.7327 112.04 13.234C111.6 12.7207 111.021 12.464 110.302 12.464C109.598 12.464 109.026 12.7207 108.586 13.234C108.146 13.7327 107.926 14.5173 107.926 15.588C107.926 16.6587 108.146 17.458 108.586 17.986C109.026 18.4993 109.598 18.756 110.302 18.756ZM118.406 8.108V5.006H121.992V8.108H118.406ZM118.538 21V10.198H121.86V21H118.538ZM124.468 21V10.198H127.724V12.222H127.482C127.673 11.7673 127.937 11.3713 128.274 11.034C128.612 10.6967 129.015 10.44 129.484 10.264C129.954 10.0733 130.467 9.978 131.024 9.978C131.86 9.978 132.557 10.176 133.114 10.572C133.672 10.968 134.068 11.5767 134.302 12.398H133.994C134.317 11.65 134.808 11.0633 135.468 10.638C136.143 10.198 136.913 9.978 137.778 9.978C138.614 9.978 139.296 10.1467 139.824 10.484C140.367 10.8067 140.77 11.3053 141.034 11.98C141.298 12.64 141.43 13.4833 141.43 14.51V21H138.108V14.62C138.108 13.9013 137.991 13.3807 137.756 13.058C137.536 12.7207 137.155 12.552 136.612 12.552C136.202 12.552 135.842 12.6547 135.534 12.86C135.226 13.0507 134.992 13.3367 134.83 13.718C134.684 14.0847 134.61 14.5393 134.61 15.082V21H131.288V14.62C131.288 13.9013 131.171 13.3807 130.936 13.058C130.716 12.7207 130.335 12.552 129.792 12.552C129.367 12.552 129.008 12.6547 128.714 12.86C128.421 13.0507 128.194 13.3367 128.032 13.718C127.871 14.0847 127.79 14.5393 127.79 15.082V21H124.468Z" fill="black" fill-opacity="0.87"/>
</svg>
